/* XPM */
static char * closeA_xpm[] = {
"28 42 5 1",
" 	c None",
".	c #353535",
"+	c #383735",
"@	c #C0C0C0",
"#	c #000000",
".......................+++++",
".........................+++",
".........................+++",
".........................+++",
".........................+++",
".......@@....@@..........+++",
".......@@@..@@@..........+++",
"........@@@@@@...........+++",
".........@@@@............+++",
".........@@@@............+++",
"........@@@@@@...........+++",
".......@@@..@@@..........+++",
".......@@....@@..........+++",
".........................+++",
".........................+++",
".........................+++",
".........................+++",
".........................+++",
".........................+++",
".........................+++",
".........................+++",
".........................+++",
".........................+++",
".........................+++",
".........................+++",
".........................+++",
"........#....#...........+++",
".......###..###..........+++",
"........######...........+++",
".........####............+++",
".........####............+++",
"........######...........+++",
".......###..###..........+++",
"........#....#...........+++",
".........................+++",
".........................+++",
".........................+++",
".........................+++",
".........................+++",
".........................+++",
".........................+++",
".........................+++"};
