/* XPM */
static char * menuButtonA_xpm[] = {
"23 42 3 1",
" 	c None",
".	c #383735",
"+	c #272727",
".......................",
".......................",
".......................",
".......................",
".......................",
".......................",
".......................",
".......................",
".......................",
".......................",
".......................",
".......................",
".......................",
".......................",
".......................",
".......................",
".......................",
".......................",
".......................",
".......................",
".......................",
".......................",
".......................",
"..++++++++++++++++.....",
"..++++++++++++++++.....",
"..++++++++++++++++.....",
"..++++++++++++++++.....",
"..++++++++++++++++.....",
"..++++++++++++++++.....",
"..++++++++++++++++.....",
"..++++++++++++++++.....",
"..++++++++++++++++.....",
"..++++++++++++++++.....",
"..++++++++++++++++.....",
"..++++++++++++++++.....",
"..++++++++++++++++.....",
"..++++++++++++++++.....",
"..++++++++++++++++.....",
"..++++++++++++++++.....",
".......................",
".......................",
"......................."};
