/* XPM */
static char * menuButtonI_xpm[] = {
"23 42 3 1",
" 	c None",
".	c #383735",
"+	c #272727",
".......................",
".......................",
".......................",
".......................",
".......................",
".......................",
".......................",
".......................",
".......................",
".......................",
".......................",
".......................",
".......................",
".......................",
".......................",
".......................",
".......................",
".......................",
".......................",
".......................",
".......................",
".......................",
".......................",
"..++++++++++++++++.....",
"..++++++++++++++++.....",
"..++++++++++++++++.....",
"..++++++++++++++++.....",
"..++++++++++++++++.....",
"..++++++++++++++++.....",
"..++++++++++++++++.....",
"..++++++++++++++++.....",
"..++++++++++++++++.....",
"..++++++++++++++++.....",
"..++++++++++++++++.....",
"..++++++++++++++++.....",
"..++++++++++++++++.....",
"..++++++++++++++++.....",
"..++++++++++++++++.....",
"..++++++++++++++++.....",
".......................",
".......................",
"......................."};
